Coordinates
version=1
nRows=19
nColumns=36
inDegrees=yes

Units are S.I. units (second, meters, Newtons, ...)
If the header above contains a line with 'inDegrees', this indicates whether rotational values are in degrees (yes) or radians (no).

endheader
time	pelvis_tilt	pelvis_list	pelvis_rotation	pelvis_tx	pelvis_ty	pelvis_tz	hip_flexion_r	hip_adduction_r	hip_rotation_r	knee_angle_r	knee_angle_r_beta	ankle_angle_r	subtalar_angle_r	mtp_angle_r	hip_flexion_l	hip_adduction_l	hip_rotation_l	knee_angle_l	knee_angle_l_beta	ankle_angle_l	subtalar_angle_l	mtp_angle_l	lumbar_extension	lumbar_bending	lumbar_rotation	arm_flex_r	arm_add_r	arm_rot_r	elbow_flex_r	pro_sup_r	arm_flex_l	arm_add_l	arm_rot_l	elbow_flex_l	pro_sup_l
      1.65000000	    -25.70488782	      4.44732735	    -11.12785652	      1.03721606	      0.76432591	      0.16830342	     67.59028887	      6.61305539	     -2.97579097	     69.89999190	      1.21998501	     32.86814589	     -2.00374606	     -7.49999983	     83.72104997	     -6.78201943	      8.04209258	     34.91017171	      0.60929744	     -3.54593927	      6.24727474	     -7.49999983	    -38.00768153	     16.82079517	     10.86393810	     89.75038408	    -15.94115917	     86.16665671	    123.38004142	     93.72546783	     54.35345050	    -10.85635967	     47.76543562	    134.61962495	    112.43129401
      1.66666670	    -26.11366343	      4.39518273	    -11.17881284	      1.03603938	      0.75784494	      0.16926117	     68.53837685	      6.66173521	     -3.35714521	     70.71048842	      1.23413084	     33.39223049	     -1.68091841	     -7.49999984	     84.69551947	     -6.88863166	      8.25494653	     35.53583720	      0.62021736	     -3.39446068	      6.39672560	     -7.49999984	    -37.43138630	     16.57472581	     11.14502106	     89.45601184	    -15.86464300	     85.29836407	    123.59713484	     92.87160183	     54.27451311	    -10.92947088	     47.41494524	    135.32397872	    112.58900797
      1.68333330	    -26.23284369	      4.18772231	    -11.11647375	      1.03615473	      0.75745320	      0.16858802	     68.84334868	      6.73373771	     -3.64311083	     71.00951453	      1.23934983	     33.51890522	     -1.77318908	     -7.49999984	     85.09922995	     -6.91096106	      8.35708260	     35.69925130	      0.62306948	     -3.64190813	      6.39971382	     -7.49999984	    -37.44906202	     16.55695830	     11.16334968	     89.64627694	    -16.11332514	     85.24864921	    123.26740536	     93.65909015	     54.01802000	    -11.21172005	     46.92716648	    135.32704030	    111.85311455
      1.70000000	    -26.67112131	      4.17301607	    -11.12086926	      1.03542899	      0.75430249	      0.16838674	     69.65498110	      6.82611966	     -3.75899446	     71.47501780	      1.24747439	     33.70786101	     -1.85384127	     -7.49999984	     85.93971581	     -6.91334339	      8.36233880	     36.12440318	      0.63048978	     -3.81227903	      6.36312710	     -7.49999984	    -36.95125052	     16.36445687	     11.23170015	     89.35102541	    -16.42553432	     86.00893605	    123.31203267	     93.13079143	     53.79245055	    -11.28406074	     47.15170408	    134.39051880	    112.31348648
      1.71666670	    -27.09850499	      4.08402237	    -11.01439576	      1.03497955	      0.75021884	      0.16807439	     70.63245882	      6.88605961	     -3.90888282	     72.09865938	      1.25835899	     33.68868616	     -2.31662710	     -7.49999986	     86.80939607	     -6.83018988	      8.30582703	     36.58847396	      0.63858934	     -3.99766127	      6.54839039	     -7.49999986	    -36.47103532	     16.30290127	     11.53385235	     89.28689606	    -16.67751553	     86.43623574	    124.25578843	     90.05319220	     54.01728881	    -10.76127850	     47.16528240	    134.31866803	    112.84649120
      1.73333330	    -27.30139666	      4.04446996	    -11.04707451	      1.03459167	      0.75032007	      0.16846194	     71.21284834	      7.05713708	     -3.86150046	     72.53964396	      1.26605563	     33.53027938	     -2.89840017	     -7.49999986	     87.14997339	     -6.85153190	      8.10838027	     36.68853915	      0.64033581	     -4.33655352	      6.65195094	     -7.49999986	    -36.60997376	     16.29323522	     11.57066096	     89.38605581	    -16.76674883	     86.99531813	    124.03069733	     89.50096052	     53.86789985	    -10.87951588	     47.00903792	    134.05835268	    112.42082250
      1.75000000	    -27.47858565	      3.95668991	    -11.09606016	      1.03504613	      0.74915846	      0.16734064	     71.54770729	      7.18361498	     -3.86417683	     72.71314438	      1.26908378	     33.46775286	     -3.37218356	     -7.49999987	     87.27516004	     -6.82308395	      8.18481624	     36.34439562	      0.63432937	     -4.58984670	      6.60467173	     -7.49999987	    -36.56531174	     16.31072810	     11.89003504	     89.46034135	    -17.16878566	     87.06891697	    123.87144092	     94.88341426	     54.01802797	    -10.42461997	     46.87216552	    133.28234476	    112.41015276
      1.76666670	    -27.67522257	      3.82664772	    -11.13235278	      1.03434866	      0.74346777	      0.16758092	     72.22187621	      7.34041679	     -4.03182112	     73.39857242	      1.28104676	     33.61374196	     -3.71445536	     -7.49999987	     87.81503521	     -6.83847482	      8.36421402	     36.54637440	      0.63785456	     -4.35612337	      6.80265788	     -7.49999987	    -36.19160742	     16.40094997	     11.93766107	     89.14899814	    -17.06352705	     88.11161832	    124.10373920	     94.36862428	     53.88827409	    -10.19034447	     46.79243337	    133.78384454	    111.96699709
      1.78333330	    -27.80614634	      3.72401789	    -11.13523608	      1.03517415	      0.74557782	      0.16664990	     72.49291620	      7.46795208	     -4.05133973	     73.65755634	      1.28556688	     33.65088954	     -4.01401610	     -7.49999987	     87.96309772	     -6.75431311	      8.58229755	     36.36203486	      0.63463723	     -4.10347324	      6.65961290	     -7.49999987	    -36.25101834	     16.57014941	     11.94438560	     88.87694345	    -17.29056596	     88.51341951	    123.32874290	     95.26863568	     53.62178828	    -10.22219841	     46.81490367	    132.45785915	    112.42668175
      1.80000000	    -27.83952454	      3.61878189	    -11.11378887	      1.03935317	      0.74100821	      0.16515427	     72.71752280	      7.50814787	     -4.16797708	     74.18167655	      1.29471450	     33.97795326	     -4.07404393	     -7.49999987	     88.17352386	     -6.61692431	      8.73492836	     36.50069791	      0.63705736	     -3.69645194	      6.71798521	     -7.49999987	    -36.35342993	     16.78408237	     11.76540401	     88.54916333	    -17.69293716	     88.97636934	    123.34234885	     95.27583747	     53.11991854	    -10.23079026	     47.08497512	    132.23259012	    112.38927710
      1.81666670	    -28.37477979	      3.52764225	    -11.09991374	      1.03917267	      0.73994961	      0.16451710	     73.35461723	      7.56391489	     -4.33813373	     74.54904264	      1.30112625	     34.22305472	     -4.08914098	     -7.49999987	     88.90321334	     -6.59209770	      8.90082291	     36.76933967	      0.64174604	     -3.33849059	      6.93247913	     -7.49999987	    -35.78388963	     16.92983827	     11.89972318	     88.17090933	    -18.27033027	     89.42582874	    123.71372903	     95.20522907	     52.80350029	    -10.09292569	     48.48959662	    131.37299756	    112.54136083
      1.83333330	    -28.43681965	      3.31015432	    -11.10467977	      1.03882655	      0.74013982	      0.16467248	     73.42322580	      7.69072327	     -4.48413669	     74.76728838	      1.30493535	     34.34631629	     -4.32352371	     -7.49999987	     89.09919798	     -6.63586671	      9.00869859	     36.76972128	      0.64175270	     -3.07389594	      7.07267065	     -7.49999987	    -35.93030108	     17.07381507	     12.06521589	     88.37865761	    -18.00126422	     89.89296287	    123.89400990	     93.02870930	     53.01415297	     -9.75754377	     48.60131777	    131.71874340	    112.45143795
      1.85000000	    -28.63197625	      3.17848711	    -11.08239210	      1.03374727	      0.73877090	      0.16661181	     73.87757328	      7.80451028	     -4.64875122	     75.12093770	      1.31110770	     34.41108430	     -4.48694480	     -7.49999987	     89.53397053	     -6.70880759	      9.12470676	     36.75082552	      0.64142291	     -3.09737705	      7.03295688	     -7.49999987	    -35.92924783	     16.95975168	     12.21116157	     89.09967425	    -17.84279534	     89.25830932	    123.79844499	     93.04451910	     53.50276051	     -9.83901587	     48.57579089	    131.63352137	    112.46058452
      1.86666670	    -28.62022979	      2.90630801	    -11.00902353	      1.03803527	      0.73461453	      0.16477833	     73.92512381	      7.92353244	     -4.82889902	     75.50259733	      1.31776892	     34.78720959	     -4.61953385	     -7.49999987	     89.82720505	     -6.74757675	      9.30397584	     37.22515872	      0.64970158	     -2.71935803	      6.86279568	     -7.49999987	    -35.78751867	     17.04893147	     12.08665060	     88.70817705	    -17.84813991	     89.10667856	    124.02217036	     93.09118841	     53.36373928	     -9.60724015	     48.96989766	    132.08495151	    112.48265142
      1.88333330	    -28.78591229	      2.75196376	    -11.09228844	      1.03294351	      0.73334352	      0.16683850	     74.39615103	      8.11871209	     -5.06674158	     75.94060957	      1.32541367	     34.90673066	     -4.61617723	     -7.49999987	     90.28643863	     -6.89482193	      9.41538465	     37.46983716	      0.65397203	     -2.48781134	      6.79194725	     -7.49999987	    -35.52712387	     16.95283360	     12.27077789	     88.91827218	    -17.93820005	     88.51586233	    124.04826820	     93.11674582	     53.84655890	     -9.68122466	     48.94807650	    132.35283379	    112.48152195
      1.90000000	    -28.98360283	      2.65710902	    -11.16941110	      1.03329751	      0.73595482	      0.16693501	     74.63109070	      8.31413737	     -5.18998573	     75.92940281	      1.32521808	     34.88791218	     -4.76822202	     -7.49999987	     90.53681130	     -7.01041538	      9.49030999	     37.46116075	      0.65382060	     -2.45126222	      6.69344840	     -7.49999987	    -35.41425092	     16.64953362	     12.63099237	     88.14253604	    -18.67032693	     87.25502068	    124.44866929	     93.33450005	     54.31484464	     -9.53081542	     50.01691159	    131.76396949	    111.91317442
      1.91666670	    -29.05335988	      2.52261064	    -11.31044153	      1.03374571	      0.73534547	      0.16640533	     74.65072357	      8.44576947	     -5.33716367	     75.90277086	      1.32475326	     35.01787392	     -4.52480173	     -7.49999987	     90.70650306	     -7.16958396	      9.54619215	     37.45810022	      0.65376718	     -2.27639852	      6.95153437	     -7.49999987	    -35.21107715	     16.58383191	     12.71190729	     87.80657401	    -18.65810053	     87.81596325	    124.61267977	     92.67275614	     54.24807299	     -9.40890485	     50.12196316	    131.87390830	    111.55617022
      1.93333330	    -28.96187228	      2.40821216	    -11.29219605	      1.03363415	      0.73584365	      0.16683076	     74.51299847	      8.47565242	     -5.47911627	     75.77989504	      1.32260868	     34.94785458	     -4.68731817	     -7.49999987	     90.65286913	     -7.24325466	      9.39180431	     37.28788406	      0.65079635	     -2.02965528	      7.13395254	     -7.49999987	    -34.93637281	     16.69691545	     12.52522009	     87.22760585	    -18.56915903	     88.16172135	    124.08930095	     94.15638700	     53.77189754	     -9.19720132	     49.21225700	    132.10673026	    112.57260765
      1.95000000	    -28.64258851	      2.18080072	    -11.19096812	      1.03888156	      0.73667522	      0.16992897	     73.84241134	      8.66721518	     -5.53845442	     75.53876796	      1.31840021	     35.06059958	     -4.96882653	     -7.49999987	     90.18724522	     -7.31488946	      9.48103235	     37.11971186	      0.64786119	     -1.47045844	      7.15528497	     -7.49999987	    -34.52116703	     16.74446143	     12.31890058	     85.81935732	    -18.45649205	     87.78343953	    124.58867527	     94.55292490	     53.17604991	     -8.87668194	     48.86628016	    133.54849691	    112.49890800
